<svg width="120" height="786" xmlns="http://www.w3.org/2000/svg" xml:space="preserve" version="1.1">
 <title>aaltokoro</title>

 <g>
  <title>Layer 1</title>
  <path id="svg_1" fill="#F1F1F1" d="m12.17857,-0.19646c0,19.8 -12,19.8 -12,39.3c0,19.8 12,19.8 12,39.3c0,19.8 -12,19.8 -12,39.3c0,19.8 12,19.8 12,39.3s-12,19.8 -12,39.3c0,19.8 12,19.8 12,39.3c0,19.8 -12,19.8 -12,39.3s12,19.8 12,39.3c0,19.8 -12,19.8 -12,39.3c0,19.8 12,19.8 12,39.3c0,19.8 -12,19.8 -12,39.3c0,19.8 12,19.8 12,39.3s-12,19.8 -12,39.3c0,19.8 12,19.8 12,39.3c0,19.8 -12,19.8 -12,39.3c0,19.8 12,19.8 12,39.3c0,19.8 -12,19.8 -12,39.3s12,19.8 12,39.3c0,19.8 -12,19.8 -12,39.3c-0.1,20.3 12,20.3 12,39.8l108.5,0l0,-788l-108.5,1.5z" class="st0"/>
 </g>
</svg>